<svg width="24" height="24" viewBox="0 0 24 24" fill="none" xmlns="http://www.w3.org/2000/svg">
<path d="M8 0.5H16C20.1421 0.5 23.5 3.85786 23.5 8V16C23.5 20.1421 20.1421 23.5 16 23.5H8C3.85786 23.5 0.5 20.1421 0.5 16V8C0.5 3.85786 3.85786 0.5 8 0.5Z" fill="#E45A47"/>
<path d="M8 0.5H16C20.1421 0.5 23.5 3.85786 23.5 8V16C23.5 20.1421 20.1421 23.5 16 23.5H8C3.85786 23.5 0.5 20.1421 0.5 16V8C0.5 3.85786 3.85786 0.5 8 0.5Z" stroke="#E45A47"/>
<path d="M17.3334 8L10.0001 15.3333L6.66675 12" stroke="#F6F3EC" stroke-width="1.5" stroke-linecap="round" stroke-linejoin="round"/>
</svg>
