<svg width="130" height="32" viewBox="0 0 130 32" fill="none" xmlns="http://www.w3.org/2000/svg">
<path d="M4.3916 23.7359V6.61578H15.1326V8.98272H7.15719V14.36H14.3638V16.704H7.15719V23.7359H4.3916Z" fill="#F6F3EC" fill-opacity="0.64"/>
<path d="M21.1559 24.0002C17.4952 24.0002 15.1198 21.346 15.1198 17.3819C15.1198 13.3834 17.4952 10.7292 21.1559 10.7292C24.8165 10.7292 27.2034 13.3834 27.2034 17.3819C27.2034 21.346 24.8165 24.0002 21.1559 24.0002ZM21.1559 21.7711C23.405 21.7711 24.4837 19.7833 24.4837 17.3819C24.4837 14.9575 23.405 12.9583 21.1559 12.9583C18.9181 12.9583 17.8395 14.946 17.8395 17.3819C17.8395 19.7833 18.9181 21.7711 21.1559 21.7711Z" fill="#F6F3EC" fill-opacity="0.64"/>
<path d="M28.407 23.7359V10.8901H30.9889V12.9812H31.1266C31.5971 11.5565 32.8709 10.7062 34.3513 10.7062C34.6726 10.7062 35.1545 10.7407 35.4299 10.7867V13.303C35.2234 13.2455 34.6152 13.1651 34.0758 13.1651C32.343 13.1651 31.0807 14.3486 31.0807 16.0146V23.7359H28.407Z" fill="#F6F3EC" fill-opacity="0.64"/>
<path d="M41.1433 24.0002C37.3335 24.0002 34.9925 21.4034 34.9925 17.4049C34.9925 13.4523 37.322 10.7292 40.9368 10.7292C43.9319 10.7292 46.7204 12.6021 46.7204 17.1981V18.1058H37.6663C37.7581 20.5302 39.1466 21.8286 41.1778 21.8286C42.5548 21.8286 43.5876 21.2196 44.0237 20.0591L46.5139 20.6221C45.9057 22.6443 43.9319 24.0002 41.1433 24.0002ZM37.6778 16.164H44.0811C43.8974 14.2107 42.8302 12.9008 40.9483 12.9008C38.9974 12.9008 37.8269 14.36 37.6778 16.164Z" fill="#F6F3EC" fill-opacity="0.64"/>
<path d="M47.8895 23.7359V10.8901H50.4715V12.9812H50.6092C51.0797 11.5565 52.3535 10.7062 53.8338 10.7062C54.1551 10.7062 54.6371 10.7407 54.9125 10.7867V13.303C54.7059 13.2455 54.0977 13.1651 53.5584 13.1651C51.8256 13.1651 50.5633 14.3486 50.5633 16.0146V23.7359H47.8895Z" fill="#F6F3EC" fill-opacity="0.64"/>
<path d="M59.9144 23.8968C57.298 23.8968 55.5423 22.1962 55.5423 19.048V10.8901H58.2161V18.6918C58.2161 20.4957 59.2259 21.5873 60.8669 21.5873C62.5308 21.5873 63.7587 20.4498 63.7587 18.4735V10.8901H66.444V23.7359H63.8849L63.862 21.2196C63.0817 23.0695 61.7161 23.8968 59.9144 23.8968Z" fill="#F6F3EC" fill-opacity="0.64"/>
<path d="M70.918 16.1525V23.7359H68.2442V10.8901H70.7918L70.8147 13.3834C71.5951 11.568 72.9377 10.7292 74.7623 10.7292C77.3902 10.7292 79.1344 12.4297 79.1344 15.578V23.7359H76.4607V15.9342C76.4607 14.1302 75.4623 13.0387 73.8213 13.0387C72.1459 13.0387 70.918 14.1762 70.918 16.1525Z" fill="#F6F3EC" fill-opacity="0.64"/>
<path d="M83.62 16.1525V23.7359H80.9462V10.8901H83.4937L83.5167 13.3834C84.297 11.568 85.6396 10.7292 87.4642 10.7292C90.0921 10.7292 91.8364 12.4297 91.8364 15.578V23.7359H89.1626V15.9342C89.1626 14.1302 88.1642 13.0387 86.5232 13.0387C84.8478 13.0387 83.62 14.1762 83.62 16.1525Z" fill="#F6F3EC" fill-opacity="0.64"/>
<path d="M99.2137 24.0002C95.4039 24.0002 93.0629 21.4034 93.0629 17.4049C93.0629 13.4523 95.3924 10.7292 99.0072 10.7292C102.002 10.7292 104.791 12.6021 104.791 17.1981V18.1058H95.7367C95.8285 20.5302 97.217 21.8286 99.2481 21.8286C100.625 21.8286 101.658 21.2196 102.094 20.0591L104.584 20.6221C103.976 22.6443 102.002 24.0002 99.2137 24.0002ZM95.7481 16.164H102.151C101.968 14.2107 100.901 12.9008 99.0186 12.9008C97.0678 12.9008 95.8973 14.36 95.7481 16.164Z" fill="#F6F3EC" fill-opacity="0.64"/>
<path d="M105.96 23.7359V10.8901H108.542V12.9812H108.68C109.15 11.5565 110.424 10.7062 111.904 10.7062C112.226 10.7062 112.707 10.7407 112.983 10.7867V13.303C112.776 13.2455 112.168 13.1651 111.629 13.1651C109.896 13.1651 108.634 14.3486 108.634 16.0146V23.7359H105.96Z" fill="#F6F3EC" fill-opacity="0.64"/>
<path d="M122.157 10.2604L120.835 7.13513V10.2604H119.816V5.3335H121.046L122.433 8.78969L123.819 5.3335H125.058V10.2604H124.021V7.16271L122.717 10.2604H122.157ZM116.429 10.2604V6.21593H114.942V5.3335H118.953V6.21593H117.466V10.2604H116.429Z" fill="#F6F3EC" fill-opacity="0.64"/>
</svg>
