<svg width="123" height="32" viewBox="0 0 123 32" fill="none" xmlns="http://www.w3.org/2000/svg">
<path d="M101.624 11.6351C101.799 12.2436 101.918 12.8351 101.982 13.4098C102.443 12.8182 102.999 12.345 103.651 11.9901C104.303 11.6182 105.01 11.4323 105.773 11.4323C106.409 11.4323 106.982 11.5506 107.49 11.7872C108.015 12.007 108.46 12.3196 108.826 12.7253C109.207 13.1309 109.493 13.6295 109.684 14.221C109.891 14.7956 109.994 15.4379 109.994 16.1477V24.4377H107.824V16.2999C107.824 15.4041 107.602 14.6942 107.156 14.1703C106.711 13.6464 106.115 13.3844 105.368 13.3844C104.875 13.3844 104.422 13.4689 104.009 13.6379C103.595 13.8069 103.238 14.0435 102.935 14.3478C102.649 14.652 102.419 15.0238 102.244 15.4632C102.085 15.8858 102.005 16.3675 102.005 16.9083V24.4377H99.8592V15.3111C99.8592 14.4154 99.8512 13.6971 99.8353 13.1562C99.8194 12.6154 99.7797 12.1084 99.7161 11.6351H101.624Z" fill="#F6F3EC" fill-opacity="0.64"/>
<path d="M95.8363 24.4383C95.7569 24.1848 95.6853 23.889 95.6217 23.551C95.574 23.213 95.5343 22.9172 95.5025 22.6637C95.0891 23.2553 94.5804 23.7369 93.9763 24.1088C93.3721 24.4806 92.6646 24.6665 91.8538 24.6665C91.2338 24.6665 90.6615 24.5735 90.1368 24.3876C89.6122 24.1848 89.167 23.9144 88.8014 23.5764C88.4357 23.2215 88.1495 22.8074 87.9429 22.3341C87.7362 21.844 87.6329 21.3116 87.6329 20.737C87.6329 19.5708 88.0701 18.6751 88.9445 18.0497C89.8189 17.4244 91.043 17.0103 92.617 16.8075L95.4309 16.4779V15.7427C95.4309 15.0329 95.2084 14.4667 94.7632 14.0441C94.334 13.6047 93.7616 13.385 93.0462 13.385C92.3785 13.385 91.8061 13.5287 91.3292 13.816C90.8522 14.1033 90.5263 14.5427 90.3514 15.1343L88.2529 14.8047C88.5231 13.7568 89.0875 12.9287 89.946 12.3202C90.8046 11.7118 91.8459 11.4076 93.0701 11.4076C93.7537 11.4076 94.3737 11.5259 94.9301 11.7625C95.4866 11.9822 95.9556 12.3033 96.3371 12.7259C96.7346 13.1315 97.0367 13.6301 97.2433 14.2216C97.4659 14.7962 97.5772 15.4385 97.5772 16.1483V20.7877C97.5772 21.6835 97.5852 22.3933 97.6011 22.9172C97.6329 23.4412 97.6726 23.9482 97.7203 24.4383H95.8363ZM92.1638 22.7398C93.1654 22.7398 93.9604 22.4187 94.5486 21.7764C95.1368 21.1342 95.4309 20.2976 95.4309 19.2666V18.0751L92.6408 18.43C91.7664 18.5483 91.0748 18.7934 90.5661 19.1652C90.0573 19.537 89.803 20.044 89.803 20.6863C89.803 21.2778 90.0176 21.768 90.4468 22.1567C90.8761 22.5454 91.4484 22.7398 92.1638 22.7398Z" fill="#F6F3EC" fill-opacity="0.64"/>
<path d="M78.4045 24.4383H76.2582V16.3004C76.2582 15.3033 76.0197 14.5681 75.5428 14.0948C75.0817 13.6047 74.5174 13.3596 73.8496 13.3596C73.4681 13.3596 73.0945 13.4357 72.7288 13.5878C72.3631 13.7399 72.0372 13.9681 71.7511 14.2723C71.4808 14.5765 71.2582 14.9484 71.0833 15.3878C70.9084 15.8272 70.821 16.3342 70.821 16.9089V24.4383H68.6747V15.3117C68.6747 14.416 68.6668 13.6977 68.6509 13.1568C68.635 12.616 68.5953 12.109 68.5317 11.6357H70.4395C70.6143 12.2442 70.7336 12.8357 70.7972 13.4104C71.3059 12.7512 71.8782 12.2526 72.5142 11.9146C73.166 11.5766 73.8258 11.4076 74.4935 11.4076C75.2566 11.4076 75.9482 11.6188 76.5682 12.0414C77.2042 12.447 77.6811 13.0554 77.9991 13.8667C78.5078 13.0216 79.104 12.4047 79.7876 12.016C80.4713 11.6104 81.2185 11.4076 82.0293 11.4076C82.5857 11.4076 83.1024 11.5174 83.5794 11.7371C84.0563 11.94 84.4697 12.2442 84.8194 12.6498C85.1851 13.0554 85.4713 13.554 85.6779 14.1455C85.8846 14.7202 85.9879 15.3878 85.9879 16.1483V24.4383H83.8417V16.3004C83.8417 15.8103 83.7781 15.3793 83.6509 15.0075C83.5237 14.6357 83.3488 14.3315 83.1263 14.0948C82.9037 13.8413 82.6414 13.6554 82.3393 13.5371C82.0531 13.4188 81.7511 13.3596 81.4331 13.3596C81.0515 13.3596 80.6779 13.4357 80.3123 13.5878C79.9466 13.7399 79.6207 13.9681 79.3345 14.2723C79.0642 14.5765 78.8417 14.9484 78.6668 15.3878C78.4919 15.8272 78.4045 16.3342 78.4045 16.9089V24.4383Z" fill="#F6F3EC" fill-opacity="0.64"/>
<path d="M64.5924 24.4379C64.5129 24.1506 64.4414 23.8549 64.3778 23.5506C64.3301 23.2464 64.2904 22.9506 64.2586 22.6633C63.7975 23.2549 63.2411 23.7365 62.5892 24.1084C61.9374 24.4802 61.2299 24.6661 60.4668 24.6661C59.8309 24.6661 59.2506 24.5562 58.726 24.3365C58.2172 24.0999 57.7721 23.7788 57.3905 23.3732C57.0248 22.9506 56.7387 22.4521 56.532 21.8774C56.3412 21.2859 56.2458 20.6352 56.2458 19.9253V11.6353H58.3921V19.7986C58.3921 20.6774 58.6147 21.3873 59.0598 21.9281C59.5209 22.4521 60.1171 22.714 60.8484 22.714C61.85 22.714 62.6608 22.3929 63.2808 21.7507C63.9008 21.0915 64.2109 20.2296 64.2109 19.1648V11.6353H66.381V20.7619C66.381 21.2183 66.381 21.6239 66.381 21.9788C66.381 22.3168 66.3889 22.6295 66.4048 22.9168C66.4207 23.2042 66.4366 23.4746 66.4525 23.7281C66.4684 23.9647 66.4923 24.2013 66.5241 24.4379H64.5924Z" fill="#F6F3EC" fill-opacity="0.64"/>
<path d="M40.5704 6.6665H42.812V14.4495H51.6117V6.6665H53.8772V24.438H51.6117V16.4776H42.812V24.438H40.5704V6.6665Z" fill="#F6F3EC" fill-opacity="0.64"/>
<path d="M34.9235 24.4382V21.9537H37.5706V24.4382H34.9235ZM34.9235 15.6665V13.1821H37.5706V15.6665H34.9235Z" fill="#F6F3EC" fill-opacity="0.64"/>
<path d="M28.5901 11.6351C28.7491 12.2605 28.8683 12.8858 28.9478 13.5112C29.3771 12.9027 29.854 12.4041 30.3787 12.0154C30.9192 11.6267 31.5551 11.4323 32.2864 11.4323L32.5011 13.4351C31.4518 13.4182 30.6012 13.7393 29.9494 14.3985C29.2976 15.0576 28.9717 15.9618 28.9717 17.1111V24.4377H26.8254V15.3111C26.8254 14.4154 26.8174 13.6971 26.8015 13.1562C26.7856 12.6154 26.7459 12.1084 26.6823 11.6351H28.5901Z" fill="#F6F3EC" fill-opacity="0.64"/>
<path d="M25.0234 18.0241C25.0234 18.9874 24.8803 19.8747 24.5941 20.686C24.308 21.4972 23.9105 22.1986 23.4018 22.7902C22.893 23.3648 22.2809 23.8212 21.5655 24.1592C20.866 24.4803 20.0949 24.6409 19.2523 24.6409C18.4097 24.6409 17.6307 24.4803 16.9153 24.1592C16.2157 23.8212 15.6116 23.3648 15.1029 22.7902C14.5941 22.1986 14.1967 21.4972 13.9105 20.686C13.6243 19.8747 13.4812 18.9874 13.4812 18.0241C13.4812 17.0438 13.6243 16.148 13.9105 15.3368C14.1967 14.5255 14.5941 13.8326 15.1029 13.2579C15.6116 12.6664 16.2157 12.2101 16.9153 11.889C17.6307 11.5678 18.4097 11.4073 19.2523 11.4073C20.0949 11.4073 20.866 11.5678 21.5655 11.889C22.2809 12.2101 22.893 12.6664 23.4018 13.2579C23.9105 13.8326 24.308 14.5255 24.5941 15.3368C24.8803 16.148 25.0234 17.0438 25.0234 18.0241ZM15.6514 18.0241C15.6514 19.4607 15.9773 20.6015 16.6291 21.4465C17.2809 22.2916 18.1553 22.7141 19.2523 22.7141C20.3493 22.7141 21.2237 22.2916 21.8755 21.4465C22.5433 20.6015 22.8771 19.4607 22.8771 18.0241C22.8771 16.6044 22.5433 15.4804 21.8755 14.6523C21.2237 13.8072 20.3493 13.3847 19.2523 13.3847C18.1553 13.3847 17.2809 13.8072 16.6291 14.6523C15.9773 15.4804 15.6514 16.6044 15.6514 18.0241Z" fill="#F6F3EC" fill-opacity="0.64"/>
<path d="M1.21289 6.6665H12.135V8.69464H3.45454V14.4495H11.6819V16.4776H3.45454V24.438H1.21289V6.6665Z" fill="#F6F3EC" fill-opacity="0.64"/>
<path d="M115.636 6.69186V7.59363H114.136V11.7622H113.174V7.59363H111.674V6.69186H115.636ZM116.125 11.7622V6.69186H117.234L118.669 10.316L120.12 6.69186H121.213V11.7622H120.251V8.51241L118.963 11.7622H118.376L117.087 8.52943V11.7622H116.125Z" fill="#F6F3EC" fill-opacity="0.64"/>
</svg>
