<svg width="108" height="32" viewBox="0 0 108 32" fill="none" xmlns="http://www.w3.org/2000/svg">
<path d="M2.81206 13.1468H1.02441V11.7673L2.81206 11.5143L3.38502 8.50229H4.87472V11.5143H7.39575V13.1698H4.87472V19.8147C4.87472 20.06 4.89764 20.2899 4.94347 20.5045C4.98931 20.7191 5.06571 20.9107 5.17266 21.0793C5.29489 21.248 5.46296 21.3859 5.67687 21.4932C5.89077 21.5852 6.15815 21.6312 6.47901 21.6312C6.64708 21.6312 6.83807 21.6235 7.05197 21.6082C7.28116 21.5775 7.54854 21.5239 7.85412 21.4472V23.1947C7.59438 23.256 7.31936 23.2943 7.02906 23.3096C6.75403 23.3403 6.49429 23.3556 6.24983 23.3556C5.63867 23.3556 5.11154 23.2637 4.66845 23.0797C4.24064 22.8804 3.88922 22.6199 3.6142 22.298C3.33918 21.9761 3.13291 21.6082 2.9954 21.1943C2.87317 20.7651 2.81206 20.3282 2.81206 19.8837V13.1468Z" fill="#F6F3EC" fill-opacity="0.64"/>
<path d="M8.4389 17.3085C8.4389 16.4348 8.57641 15.6301 8.85143 14.8943C9.12646 14.1585 9.50843 13.53 9.99736 13.0089C10.4863 12.4724 11.0669 12.0585 11.7392 11.7673C12.4267 11.4607 13.1754 11.3074 13.9852 11.3074C14.8102 11.3074 15.5589 11.4607 16.2312 11.7673C16.9187 12.0585 17.507 12.4724 17.9959 13.0089C18.4848 13.53 18.8592 14.1585 19.1189 14.8943C19.3939 15.6301 19.5314 16.4348 19.5314 17.3085V17.8144H10.5474C10.6238 18.964 10.9676 19.8684 11.5787 20.5275C12.2052 21.1866 13.0073 21.5162 13.9852 21.5162C14.7644 21.5162 15.429 21.3246 15.9791 20.9414C16.5291 20.5428 16.9264 19.9834 17.1708 19.2629L19.1418 19.6768C18.821 20.7804 18.2022 21.6618 17.2854 22.3209C16.384 22.9801 15.2839 23.3096 13.9852 23.3096C13.1754 23.3096 12.4267 23.164 11.7392 22.8728C11.0669 22.5662 10.4863 22.1523 9.99736 21.6312C9.50843 21.0947 9.12646 20.4585 8.85143 19.7228C8.57641 18.987 8.4389 18.1823 8.4389 17.3085ZM13.9852 13.1008C13.0684 13.1008 12.3121 13.3844 11.7162 13.9516C11.1204 14.5187 10.746 15.3082 10.5932 16.3198H17.3771C17.2549 15.3082 16.8882 14.5187 16.277 13.9516C15.6811 13.3844 14.9172 13.1008 13.9852 13.1008Z" fill="#F6F3EC" fill-opacity="0.64"/>
<path d="M22.3667 11.5143C22.5195 12.0815 22.6341 12.6487 22.7105 13.2158C23.123 12.664 23.5814 12.2118 24.0856 11.8592C24.6051 11.5067 25.2162 11.3304 25.9191 11.3304L26.1253 13.1468C25.1169 13.1315 24.2995 13.4227 23.6731 14.0206C23.0466 14.6184 22.7334 15.4384 22.7334 16.4808V23.1257H20.6707V14.8483C20.6707 14.0359 20.6631 13.3844 20.6478 12.8939C20.6325 12.4034 20.5943 11.9435 20.5332 11.5143H22.3667Z" fill="#F6F3EC" fill-opacity="0.64"/>
<path d="M28.5449 11.5143C28.6976 12.0815 28.8122 12.6487 28.8886 13.2158C29.3012 12.664 29.7595 12.2118 30.2637 11.8592C30.7832 11.5067 31.3944 11.3304 32.0972 11.3304L32.3035 13.1468C31.2951 13.1315 30.4776 13.4227 29.8512 14.0206C29.2248 14.6184 28.9115 15.4384 28.9115 16.4808V23.1257H26.8489V14.8483C26.8489 14.0359 26.8412 13.3844 26.826 12.8939C26.8107 12.4034 26.7725 11.9435 26.7114 11.5143H28.5449Z" fill="#F6F3EC" fill-opacity="0.64"/>
<path d="M40.2288 23.1257C40.1524 22.8958 40.0837 22.6275 40.0225 22.3209C39.9767 22.0144 39.9385 21.7461 39.9079 21.5162C39.5107 22.0527 39.0218 22.4896 38.4412 22.8268C37.8606 23.164 37.1806 23.3326 36.4014 23.3326C35.8055 23.3326 35.2555 23.2483 34.7513 23.0797C34.2471 22.8958 33.8193 22.6505 33.4678 22.3439C33.1164 22.022 32.8414 21.6465 32.6428 21.2173C32.4442 20.7728 32.3448 20.2899 32.3448 19.7688C32.3448 18.7111 32.765 17.8987 33.6054 17.3315C34.4457 16.7644 35.6222 16.3888 37.1348 16.2049L39.8392 15.906V15.2392C39.8392 14.5954 39.6253 14.0819 39.1975 13.6987C38.7849 13.3001 38.2349 13.1008 37.5473 13.1008C36.9056 13.1008 36.3556 13.2311 35.8972 13.4917C35.4388 13.7523 35.1256 14.1509 34.9576 14.6873L32.9407 14.3884C33.2005 13.4381 33.7429 12.687 34.5679 12.1352C35.393 11.5833 36.3938 11.3074 37.5703 11.3074C38.2273 11.3074 38.8231 11.4147 39.3579 11.6293C39.8927 11.8286 40.3434 12.1198 40.7101 12.503C41.0921 12.8709 41.3824 13.3231 41.581 13.8596C41.7949 14.3808 41.9019 14.9633 41.9019 15.6071V19.8147C41.9019 20.6271 41.9095 21.2709 41.9248 21.7461C41.9553 22.2213 41.9935 22.6812 42.0394 23.1257H40.2288ZM36.6994 21.5852C37.6619 21.5852 38.4259 21.2939 38.9912 20.7115C39.5565 20.129 39.8392 19.3702 39.8392 18.4352V17.3545L37.1577 17.6764C36.3174 17.7837 35.6527 18.006 35.1638 18.3432C34.6749 18.6804 34.4304 19.1403 34.4304 19.7228C34.4304 20.2593 34.6367 20.7038 35.0492 21.0563C35.4618 21.4089 36.0118 21.5852 36.6994 21.5852Z" fill="#F6F3EC" fill-opacity="0.64"/>
<path d="M43.6367 14.3425H58.74V16.0439H43.6367V14.3425Z" fill="#F6F3EC" fill-opacity="0.64"/>
<path d="M61.5908 13.1468H59.8032V11.7673L61.5908 11.5143L62.1638 8.50229H63.6535V11.5143H66.1745V13.1698H63.6535V19.8147C63.6535 20.06 63.6764 20.2899 63.7222 20.5045C63.7681 20.7191 63.8444 20.9107 63.9514 21.0793C64.0736 21.248 64.2417 21.3859 64.4556 21.4932C64.6695 21.5852 64.9369 21.6312 65.2578 21.6312C65.4258 21.6312 65.6168 21.6235 65.8307 21.6082C66.0599 21.5775 66.3273 21.5239 66.6329 21.4472V23.1947C66.3731 23.256 66.0981 23.2943 65.8078 23.3096C65.5328 23.3403 65.273 23.3556 65.0286 23.3556C64.4174 23.3556 63.8903 23.2637 63.4472 23.0797C63.0194 22.8804 62.668 22.6199 62.3929 22.298C62.1179 21.9761 61.9117 21.6082 61.7741 21.1943C61.6519 20.7651 61.5908 20.3282 61.5908 19.8837V13.1468Z" fill="#F6F3EC" fill-opacity="0.64"/>
<path d="M78.0864 17.3085C78.0864 18.1823 77.9489 18.987 77.6738 19.7228C77.3988 20.4585 77.0168 21.0947 76.5279 21.6312C76.039 22.1523 75.4507 22.5662 74.7632 22.8728C74.0909 23.164 73.3499 23.3096 72.5401 23.3096C71.7303 23.3096 70.9816 23.164 70.2941 22.8728C69.6218 22.5662 69.0412 22.1523 68.5523 21.6312C68.0634 21.0947 67.6814 20.4585 67.4064 19.7228C67.1313 18.987 66.9938 18.1823 66.9938 17.3085C66.9938 16.4195 67.1313 15.6071 67.4064 14.8713C67.6814 14.1355 68.0634 13.5071 68.5523 12.9859C69.0412 12.4494 69.6218 12.0355 70.2941 11.7443C70.9816 11.453 71.7303 11.3074 72.5401 11.3074C73.3499 11.3074 74.0909 11.453 74.7632 11.7443C75.4507 12.0355 76.039 12.4494 76.5279 12.9859C77.0168 13.5071 77.3988 14.1355 77.6738 14.8713C77.9489 15.6071 78.0864 16.4195 78.0864 17.3085ZM69.0794 17.3085C69.0794 18.6114 69.3926 19.6461 70.0191 20.4125C70.6455 21.179 71.4858 21.5622 72.5401 21.5622C73.5943 21.5622 74.4347 21.179 75.0611 20.4125C75.7029 19.6461 76.0237 18.6114 76.0237 17.3085C76.0237 16.0209 75.7029 15.0016 75.0611 14.2505C74.4347 13.4841 73.5943 13.1008 72.5401 13.1008C71.4858 13.1008 70.6455 13.4841 70.0191 14.2505C69.3926 15.0016 69.0794 16.0209 69.0794 17.3085Z" fill="#F6F3EC" fill-opacity="0.64"/>
<path d="M81.0559 11.5143C81.2087 12.0815 81.3233 12.6487 81.3997 13.2158C81.8122 12.664 82.2706 12.2118 82.7748 11.8592C83.2943 11.5067 83.9055 11.3304 84.6083 11.3304L84.8146 13.1468C83.8061 13.1315 82.9887 13.4227 82.3623 14.0206C81.7358 14.6184 81.4226 15.4384 81.4226 16.4808V23.1257H79.36V14.8483C79.36 14.0359 79.3523 13.3844 79.337 12.8939C79.3218 12.4034 79.2836 11.9435 79.2224 11.5143H81.0559Z" fill="#F6F3EC" fill-opacity="0.64"/>
<path d="M84.7818 11.5143H86.9132L90.3051 20.5275L93.6742 11.5143H95.7597L90.901 24.1144C90.7329 24.5742 90.542 25.0341 90.3281 25.494C90.1294 25.9538 89.8697 26.3677 89.5488 26.7356C89.228 27.1188 88.8384 27.4253 88.38 27.6553C87.9216 27.8852 87.3563 28.0002 86.684 28.0002C86.4243 28.0002 86.1416 27.9772 85.836 27.9312C85.5457 27.9005 85.2554 27.8469 84.9651 27.7702V25.9998C85.3318 26.1224 85.6374 26.1991 85.8819 26.2297C86.1263 26.2604 86.3479 26.2757 86.5465 26.2757C86.9285 26.2757 87.2493 26.1991 87.5091 26.0458C87.7841 25.9078 88.0133 25.7239 88.1966 25.494C88.3953 25.264 88.5557 25.0034 88.6779 24.7122C88.8154 24.421 88.9377 24.1297 89.0446 23.8385L89.3196 23.1257L84.7818 11.5143Z" fill="#F6F3EC" fill-opacity="0.64"/>
<path d="M102.439 7.3335V7.9428H101.384V10.7594H100.708V7.9428H99.6541V7.3335H102.439ZM102.782 10.7594V7.3335H103.562L104.57 9.78223L105.59 7.3335H106.358V10.7594H105.682V8.56361L104.776 10.7594H104.364L103.459 8.57511V10.7594H102.782Z" fill="#F6F3EC" fill-opacity="0.64"/>
</svg>
