<svg width="100" height="32" viewBox="0 0 100 32" fill="none" xmlns="http://www.w3.org/2000/svg">
<path d="M82.2273 24.7052C80.6625 24.7052 79.2783 24.3613 78.0746 23.6734C76.8859 22.9855 75.953 22.0359 75.276 20.8246C74.6139 19.5983 74.2829 18.1851 74.2829 16.585C74.2829 14.9849 74.6139 13.5792 75.276 12.3679C75.953 11.1416 76.8859 10.1845 78.0746 9.49662C79.2783 8.80872 80.6625 8.46477 82.2273 8.46477C83.8072 8.46477 85.1914 8.80872 86.3801 9.49662C87.5687 10.1845 88.494 11.1416 89.1561 12.3679C89.8332 13.5792 90.1717 14.9849 90.1717 16.585C90.1717 18.1851 89.8332 19.5983 89.1561 20.8246C88.494 22.0359 87.5687 22.9855 86.3801 23.6734C85.1914 24.3613 83.8072 24.7052 82.2273 24.7052ZM82.2499 21.8789C83.2128 21.8789 84.0404 21.6695 84.7325 21.2508C85.4397 20.8171 85.9889 20.204 86.3801 19.4114C86.7713 18.6188 86.9669 17.6767 86.9669 16.585C86.9669 15.4933 86.7713 14.5512 86.3801 13.7586C85.9889 12.966 85.4397 12.3604 84.7325 11.9417C84.0404 11.508 83.2128 11.2911 82.2499 11.2911C81.2869 11.2911 80.4519 11.508 79.7447 11.9417C79.0375 12.3604 78.4883 12.966 78.0971 13.7586C77.7059 14.5512 77.5103 15.4933 77.5103 16.585C77.5103 17.6767 77.7059 18.6188 78.0971 19.4114C78.4883 20.204 79.0375 20.8171 79.7447 21.2508C80.4519 21.6695 81.2869 21.8789 82.2499 21.8789Z" fill="#F6F3EC" fill-opacity="0.64"/>
<path d="M66.5173 24.7052C64.9224 24.7052 63.5457 24.3688 62.3871 23.6958C61.2436 23.0079 60.3634 22.0583 59.7465 20.847C59.1296 19.6207 58.8212 18.2076 58.8212 16.6074C58.8212 15.0073 59.1296 13.5941 59.7465 12.3679C60.3634 11.1416 61.2436 10.1845 62.3871 9.49662C63.5457 8.80872 64.9224 8.46477 66.5173 8.46477C68.4432 8.46477 70.0231 8.94331 71.2569 9.90039C72.4906 10.8575 73.2505 12.2034 73.5364 13.9381H70.0607C69.8801 13.1006 69.4814 12.4576 68.8645 12.009C68.2627 11.5454 67.4652 11.3136 66.4722 11.3136C65.5393 11.3136 64.7419 11.5304 64.0798 11.9641C63.4178 12.3828 62.9062 12.9885 62.5451 13.7811C62.1991 14.5736 62.026 15.5158 62.026 16.6074C62.026 17.6991 62.1991 18.6412 62.5451 19.4338C62.9062 20.2114 63.4178 20.8171 64.0798 21.2508C64.7419 21.6695 65.5393 21.8789 66.4722 21.8789C67.4652 21.8789 68.2627 21.6695 68.8645 21.2508C69.4664 20.8171 69.8576 20.204 70.0381 19.4114H73.5138C73.2279 21.0713 72.4681 22.3724 71.2343 23.3145C70.0155 24.2417 68.4432 24.7052 66.5173 24.7052Z" fill="#F6F3EC" fill-opacity="0.64"/>
<path d="M44.0969 24.4361V8.73394H47.2566L54.411 19.389V8.73394H57.5707V24.4361H54.411L47.2566 13.8259V24.4361H44.0969Z" fill="#F6F3EC" fill-opacity="0.64"/>
<path d="M28.3247 24.4361L34.0799 8.73394H37.6684L43.4462 24.4361H40.1059L35.2309 10.4387H36.5174L31.6424 24.4361H28.3247ZM30.9879 20.9143L31.823 18.4693H39.9479L40.783 20.9143H30.9879Z" fill="#F6F3EC" fill-opacity="0.64"/>
<path d="M15.3554 24.4361V8.73394H22.0585C23.3374 8.73394 24.3906 8.95078 25.2182 9.38446C26.0608 9.80318 26.6852 10.3864 27.0914 11.1341C27.5127 11.8669 27.7234 12.6969 27.7234 13.624C27.7234 14.3418 27.5654 15.0073 27.2494 15.6204C26.9334 16.2186 26.5121 16.7345 25.9855 17.1682C26.5573 17.557 26.9936 18.058 27.2945 18.6711C27.6105 19.2843 27.7836 19.9871 27.8136 20.7797L27.9942 24.4361H24.9022L24.6539 20.7797C24.6239 20.2563 24.5185 19.8301 24.338 19.5011C24.1725 19.1572 23.9092 18.9029 23.548 18.7384C23.1869 18.5739 22.6979 18.4917 22.081 18.4917H18.5151V24.4361H15.3554ZM18.5151 15.9569H21.8554C22.7882 15.9569 23.4653 15.7476 23.8866 15.3288C24.3079 14.9101 24.5185 14.3418 24.5185 13.624C24.5185 12.8913 24.3079 12.323 23.8866 11.9192C23.4653 11.5005 22.7882 11.2911 21.8554 11.2911H18.5151V15.9569Z" fill="#F6F3EC" fill-opacity="0.64"/>
<path d="M3.99316 24.4361V8.73394H14.3525V11.2687H7.15286V15.3288H12.908V17.7963H7.15286V24.4361H3.99316Z" fill="#F6F3EC" fill-opacity="0.64"/>
<path d="M93.6798 12.6707C93.2359 12.6707 92.8372 12.5735 92.4836 12.3791C92.1376 12.1772 91.863 11.9005 91.6599 11.5491C91.4643 11.1977 91.3665 10.8014 91.3665 10.3602C91.3665 9.90413 91.4643 9.5041 91.6599 9.16015C91.863 8.8162 92.1376 8.54328 92.4836 8.3414C92.8372 8.13952 93.2359 8.03857 93.6798 8.03857C94.1387 8.03857 94.5412 8.13952 94.8873 8.3414C95.2333 8.54328 95.5042 8.8162 95.6998 9.16015C95.8954 9.5041 95.9932 9.90413 95.9932 10.3602C95.9932 10.8014 95.8954 11.1977 95.6998 11.5491C95.5042 11.9005 95.2333 12.1772 94.8873 12.3791C94.5412 12.5735 94.1387 12.6707 93.6798 12.6707ZM93.6798 12.1996C94.229 12.1996 94.6653 12.0277 94.9888 11.6837C95.3198 11.3398 95.4854 10.8986 95.4854 10.3602C95.4854 9.81441 95.3198 9.37325 94.9888 9.03678C94.6653 8.69283 94.229 8.52085 93.6798 8.52085C93.1306 8.52085 92.6905 8.69283 92.3595 9.03678C92.036 9.37325 91.8743 9.81441 91.8743 10.3602C91.8743 10.8986 92.036 11.3398 92.3595 11.6837C92.6905 12.0277 93.1306 12.1996 93.6798 12.1996ZM92.7432 11.5379V9.13772H93.8829C94.1312 9.13772 94.3306 9.20502 94.481 9.33961C94.6315 9.4742 94.7067 9.65365 94.7067 9.87796C94.7067 10.1247 94.6202 10.3191 94.4472 10.4612C94.5374 10.521 94.5976 10.5995 94.6277 10.6967C94.6653 10.7939 94.6879 10.8986 94.6954 11.0108L94.7406 11.5379H94.1651L94.1199 11.1454C94.0973 10.936 94.0635 10.7977 94.0183 10.7304C93.9807 10.6631 93.8829 10.6294 93.7249 10.6294H93.3638V11.5379H92.7432ZM93.3638 10.1696H93.8039C93.8867 10.1696 93.9544 10.1509 94.0071 10.1135C94.0673 10.0686 94.0973 10.0013 94.0973 9.91161C94.0973 9.82189 94.0673 9.75833 94.0071 9.72094C93.9544 9.68356 93.8867 9.66486 93.8039 9.66486H93.3638V10.1696Z" fill="#F6F3EC" fill-opacity="0.64"/>
</svg>
