<svg width="96" height="32" viewBox="0 0 96 32" fill="none" xmlns="http://www.w3.org/2000/svg">
<path d="M79.2514 23.7193V8.85997H83.389V23.7193H79.2514Z" fill="#F6F3EC" fill-opacity="0.64"/>
<path d="M69.0073 23.9998C68.0555 23.9998 67.2072 23.8354 66.4626 23.5065C65.7179 23.1711 65.1287 22.6777 64.6949 22.0263C64.2675 21.3685 64.0538 20.5494 64.0538 19.5691C64.0538 18.7436 64.206 18.0503 64.5103 17.4892C64.8147 16.9281 65.2291 16.4767 65.7536 16.1349C66.278 15.793 66.8737 15.5351 67.5407 15.3609C68.2141 15.1868 68.9199 15.0643 69.6581 14.9933C70.5257 14.903 71.2251 14.8192 71.756 14.7418C72.287 14.658 72.6723 14.5354 72.9118 14.3742C73.1514 14.2129 73.2712 13.9743 73.2712 13.6583V13.6003C73.2712 12.9876 73.077 12.5135 72.6884 12.1782C72.3064 11.8428 71.7625 11.6751 71.0567 11.6751C70.3121 11.6751 69.7196 11.8396 69.2793 12.1685C68.839 12.491 68.5476 12.8973 68.4051 13.3874L64.5783 13.0779C64.7726 12.175 65.1546 11.3946 65.7244 10.7367C66.2942 10.0725 67.0292 9.56296 67.9292 9.20825C68.8357 8.84709 69.8847 8.6665 71.0761 8.6665C71.9049 8.6665 72.6982 8.76324 73.4557 8.95672C74.2198 9.1502 74.8965 9.4501 75.4857 9.85641C76.0814 10.2627 76.5509 10.7851 76.8941 11.4236C77.2372 12.0556 77.4088 12.8134 77.4088 13.697V23.7193H73.4849V21.6587H73.3683C73.1288 22.1231 72.8082 22.5326 72.4068 22.8873C72.0053 23.2356 71.5229 23.5097 70.9596 23.7096C70.3962 23.9031 69.7455 23.9998 69.0073 23.9998ZM70.1923 21.1557C70.8009 21.1557 71.3384 21.0364 71.8046 20.7977C72.2708 20.5527 72.6366 20.2237 72.9021 19.811C73.1676 19.3982 73.3003 18.9306 73.3003 18.4082V16.8314C73.1708 16.9152 72.9928 16.9926 72.7661 17.0636C72.546 17.1281 72.2967 17.1893 72.0183 17.2474C71.7398 17.299 71.4614 17.3473 71.183 17.3925C70.9045 17.4312 70.652 17.4666 70.4254 17.4989C69.9397 17.5698 69.5156 17.6827 69.153 17.8375C68.7904 17.9923 68.5087 18.2019 68.308 18.4663C68.1073 18.7243 68.0069 19.0467 68.0069 19.4337C68.0069 19.9948 68.2109 20.4237 68.6188 20.7203C69.0332 21.0106 69.5577 21.1557 70.1923 21.1557Z" fill="#F6F3EC" fill-opacity="0.64"/>
<path d="M58.6686 23.7193V8.85997H62.8063V23.7193H58.6686Z" fill="#F6F3EC" fill-opacity="0.64"/>
<path d="M48.4246 23.9998C47.4728 23.9998 46.6245 23.8354 45.8799 23.5065C45.1352 23.1711 44.546 22.6777 44.1121 22.0263C43.6848 21.3685 43.4711 20.5494 43.4711 19.5691C43.4711 18.7436 43.6233 18.0503 43.9276 17.4892C44.2319 16.9281 44.6463 16.4767 45.1708 16.1349C45.6953 15.793 46.291 15.5351 46.958 15.3609C47.6314 15.1868 48.3372 15.0643 49.0754 14.9933C49.943 14.903 50.6423 14.8192 51.1733 14.7418C51.7043 14.658 52.0895 14.5354 52.3291 14.3742C52.5687 14.2129 52.6885 13.9743 52.6885 13.6583V13.6003C52.6885 12.9876 52.4942 12.5135 52.1057 12.1782C51.7237 11.8428 51.1798 11.6751 50.474 11.6751C49.7293 11.6751 49.1369 11.8396 48.6966 12.1685C48.2562 12.491 47.9649 12.8973 47.8224 13.3874L43.9956 13.0779C44.1898 12.175 44.5719 11.3946 45.1417 10.7367C45.7115 10.0725 46.4464 9.56296 47.3465 9.20825C48.253 8.84709 49.302 8.6665 50.4934 8.6665C51.3222 8.6665 52.1154 8.76324 52.873 8.95672C53.6371 9.1502 54.3138 9.4501 54.903 9.85641C55.4987 10.2627 55.9682 10.7851 56.3113 11.4236C56.6545 12.0556 56.8261 12.8134 56.8261 13.697V23.7193H52.9022V21.6587H52.7856C52.546 22.1231 52.2255 22.5326 51.8241 22.8873C51.4226 23.2356 50.9402 23.5097 50.3769 23.7096C49.8135 23.9031 49.1628 23.9998 48.4246 23.9998ZM49.6096 21.1557C50.2182 21.1557 50.7556 21.0364 51.2219 20.7977C51.6881 20.5527 52.0539 20.2237 52.3194 19.811C52.5849 19.3982 52.7176 18.9306 52.7176 18.4082V16.8314C52.5881 16.9152 52.4101 16.9926 52.1834 17.0636C51.9633 17.1281 51.714 17.1893 51.4355 17.2474C51.1571 17.299 50.8787 17.3473 50.6002 17.3925C50.3218 17.4312 50.0693 17.4666 49.8427 17.4989C49.357 17.5698 48.9329 17.6827 48.5703 17.8375C48.2077 17.9923 47.926 18.2019 47.7253 18.4663C47.5246 18.7243 47.4242 19.0467 47.4242 19.4337C47.4242 19.9948 47.6282 20.4237 48.0361 20.7203C48.4505 21.0106 48.975 21.1557 49.6096 21.1557Z" fill="#F6F3EC" fill-opacity="0.64"/>
<path d="M38.0859 23.7193V8.85997H42.2235V23.7193H38.0859Z" fill="#F6F3EC" fill-opacity="0.64"/>
<path d="M27.8418 23.9998C26.89 23.9998 26.0417 23.8354 25.2971 23.5065C24.5524 23.1711 23.9632 22.6777 23.5294 22.0263C23.102 21.3685 22.8883 20.5494 22.8883 19.5691C22.8883 18.7436 23.0405 18.0503 23.3448 17.4892C23.6492 16.9281 24.0636 16.4767 24.5881 16.1349C25.1125 15.793 25.7083 15.5351 26.3752 15.3609C27.0486 15.1868 27.7544 15.0643 28.4926 14.9933C29.3602 14.903 30.0596 14.8192 30.5905 14.7418C31.1215 14.658 31.5068 14.5354 31.7463 14.3742C31.9859 14.2129 32.1057 13.9743 32.1057 13.6583V13.6003C32.1057 12.9876 31.9115 12.5135 31.5229 12.1782C31.1409 11.8428 30.597 11.6751 29.8912 11.6751C29.1466 11.6751 28.5541 11.8396 28.1138 12.1685C27.6735 12.491 27.3821 12.8973 27.2396 13.3874L23.4128 13.0779C23.6071 12.175 23.9891 11.3946 24.5589 10.7367C25.1287 10.0725 25.8637 9.56296 26.7637 9.20825C27.6702 8.84709 28.7192 8.6665 29.9106 8.6665C30.7395 8.6665 31.5327 8.76324 32.2903 8.95672C33.0543 9.1502 33.731 9.4501 34.3202 9.85641C34.9159 10.2627 35.3854 10.7851 35.7286 11.4236C36.0717 12.0556 36.2433 12.8134 36.2433 13.697V23.7193H32.3194V21.6587H32.2028C31.9633 22.1231 31.6427 22.5326 31.2413 22.8873C30.8398 23.2356 30.3574 23.5097 29.7941 23.7096C29.2307 23.9031 28.58 23.9998 27.8418 23.9998ZM29.0268 21.1557C29.6354 21.1557 30.1729 21.0364 30.6391 20.7977C31.1053 20.5527 31.4711 20.2237 31.7366 19.811C32.0021 19.3982 32.1348 18.9306 32.1348 18.4082V16.8314C32.0053 16.9152 31.8273 16.9926 31.6006 17.0636C31.3805 17.1281 31.1312 17.1893 30.8528 17.2474C30.5743 17.299 30.2959 17.3473 30.0175 17.3925C29.739 17.4312 29.4865 17.4666 29.2599 17.4989C28.7742 17.5698 28.3501 17.6827 27.9875 17.8375C27.6249 17.9923 27.3432 18.2019 27.1425 18.4663C26.9418 18.7243 26.8414 19.0467 26.8414 19.4337C26.8414 19.9948 27.0454 20.4237 27.4533 20.7203C27.8677 21.0106 28.3922 21.1557 29.0268 21.1557Z" fill="#F6F3EC" fill-opacity="0.64"/>
<path d="M17.5031 23.7193V8.85997H21.6408V23.7193H17.5031Z" fill="#F6F3EC" fill-opacity="0.64"/>
<path d="M7.25916 23.9998C6.30731 23.9998 5.45907 23.8354 4.71442 23.5065C3.96978 23.1711 3.38054 22.6777 2.9467 22.0263C2.51934 21.3685 2.30566 20.5494 2.30566 19.5691C2.30566 18.7436 2.45783 18.0503 2.76216 17.4892C3.06649 16.9281 3.4809 16.4767 4.00539 16.1349C4.52988 15.793 5.12559 15.5351 5.79254 15.3609C6.46595 15.1868 7.17174 15.0643 7.90991 14.9933C8.77758 14.903 9.4769 14.8192 10.0079 14.7418C10.5388 14.658 10.9241 14.5354 11.1637 14.3742C11.4033 14.2129 11.523 13.9743 11.523 13.6583V13.6003C11.523 12.9876 11.3288 12.5135 10.9403 12.1782C10.5583 11.8428 10.0143 11.6751 9.30854 11.6751C8.5639 11.6751 7.97143 11.8396 7.53112 12.1685C7.09081 12.491 6.79942 12.8973 6.65697 13.3874L2.83015 13.0779C3.02441 12.175 3.40644 11.3946 3.97625 10.7367C4.54607 10.0725 5.281 9.56296 6.18105 9.20825C7.08757 8.84709 8.13654 8.6665 9.32797 8.6665C10.1568 8.6665 10.95 8.76324 11.7076 8.95672C12.4717 9.1502 13.1483 9.4501 13.7376 9.85641C14.3333 10.2627 14.8027 10.7851 15.1459 11.4236C15.4891 12.0556 15.6607 12.8134 15.6607 13.697V23.7193H11.7367V21.6587H11.6202C11.3806 22.1231 11.0601 22.5326 10.6586 22.8873C10.2572 23.2356 9.77476 23.5097 9.21142 23.7096C8.64808 23.9031 7.99733 23.9998 7.25916 23.9998ZM8.44411 21.1557C9.05278 21.1557 9.59021 21.0364 10.0564 20.7977C10.5226 20.5527 10.8885 20.2237 11.154 19.811C11.4194 19.3982 11.5522 18.9306 11.5522 18.4082V16.8314C11.4227 16.9152 11.2446 16.9926 11.018 17.0636C10.7978 17.1281 10.5485 17.1893 10.2701 17.2474C9.99167 17.299 9.71324 17.3473 9.43481 17.3925C9.15638 17.4312 8.90385 17.4666 8.67722 17.4989C8.19158 17.5698 7.76746 17.6827 7.40485 17.8375C7.04224 17.9923 6.76057 18.2019 6.55984 18.4663C6.35911 18.7243 6.25875 19.0467 6.25875 19.4337C6.25875 19.9948 6.46271 20.4237 6.87065 20.7203C7.28506 21.0106 7.80955 21.1557 8.44411 21.1557Z" fill="#F6F3EC" fill-opacity="0.64"/>
<path d="M92.7645 12.4998L91.142 8.6665H91.8763L92.9699 11.3853L94.0584 8.6665H94.7926L93.1753 12.4998H92.7645ZM90.9623 12.4998V8.6665H91.7171V12.4998H90.9623ZM94.2176 12.4998V8.6665H94.9723V12.4998H94.2176ZM88.4002 12.4998V8.99984H89.155V12.4998H88.4002ZM87.2501 9.32275V8.6665H90.3051V9.32275H87.2501Z" fill="#F6F3EC" fill-opacity="0.64"/>
</svg>
