<svg width="108" height="32" viewBox="0 0 108 32" fill="none" xmlns="http://www.w3.org/2000/svg">
<path d="M36.0975 11.1093C36.0975 15.2853 44.9295 14.0373 44.9295 19.7733C44.9295 22.4373 42.9135 24.7173 39.0975 24.7173C36.9135 24.7173 34.9215 23.9733 33.5535 22.8693L33.2415 19.4133H34.1295C34.4415 20.1573 34.6815 20.7813 34.9695 21.1893C35.5935 22.2693 36.8655 23.3973 39.0495 23.3973C41.2815 23.3973 42.5535 22.1013 42.5535 20.4213C42.5535 15.9573 33.7215 17.5653 33.7215 11.7573C33.7215 9.26133 35.6895 7.17333 39.3135 7.17333C40.7055 7.17333 42.2655 7.55733 43.6575 8.10933L43.9695 11.4213H43.0575C42.8655 10.9173 42.5775 10.3173 42.4095 10.0533C41.7375 8.92533 40.5135 8.49333 39.3855 8.49333C37.2735 8.49333 36.0975 9.69333 36.0975 11.1093Z" fill="#F6F3EC" fill-opacity="0.64"/>
<path d="M51.7391 23.5653C53.8511 23.5653 55.2191 21.5253 55.2191 18.3093C55.2191 15.0933 53.8511 13.0773 51.7391 13.0773C49.6271 13.0773 48.2591 15.0933 48.2591 18.3093C48.2591 21.5253 49.6271 23.5653 51.7391 23.5653ZM45.7391 18.3093C45.7391 14.5653 48.2111 11.9493 51.7391 11.9493C55.2671 11.9493 57.7151 14.5653 57.7151 18.3093C57.7151 22.0533 55.2671 24.6933 51.7391 24.6933C48.2111 24.6933 45.7391 22.0533 45.7391 18.3093Z" fill="#F6F3EC" fill-opacity="0.64"/>
<path d="M62.7798 28.2693C62.7798 29.1573 63.3078 29.6613 64.1958 29.6613H65.0598V30.5733H58.6518V29.6613H59.4198C60.1398 29.6613 60.5478 29.1573 60.5478 28.2693V15.6213C60.5478 14.0133 60.3078 13.8933 58.4838 14.0373V13.1253C60.3798 12.9333 61.0278 12.7173 61.7718 12.1893H62.7798V14.1573C63.8118 12.7653 65.2278 11.9493 66.8598 11.9493C69.7158 11.9493 71.4918 14.2293 71.4918 18.3093C71.4918 22.2213 69.5718 24.6933 66.4758 24.6933C64.9158 24.6933 63.6438 24.0693 62.7798 22.9413V28.2693ZM62.7798 21.0933C63.2838 22.5333 64.2918 23.3013 65.6358 23.3013C67.6278 23.3013 68.9958 21.6693 68.9958 18.5013C68.9958 15.1893 67.8198 13.4853 66.1158 13.4853C64.7718 13.4853 63.6198 14.2773 62.7798 15.7413V21.0933Z" fill="#F6F3EC" fill-opacity="0.64"/>
<path d="M76.4917 22.0293C76.4917 22.9173 76.8997 23.4213 77.6197 23.4213H78.3397V24.3333H72.3637V23.4213H73.1317C73.8517 23.4213 74.2597 22.9173 74.2597 22.0293V9.35733C74.2597 7.74933 74.0197 7.62933 72.1957 7.77333V6.86133C74.0917 6.66933 74.7397 6.45333 75.4837 5.92533H76.4917V14.1813C78.0277 12.6213 79.6117 11.9493 80.9557 11.9493C82.9717 11.9493 84.1957 13.1493 84.1957 15.4293V22.0293C84.1957 22.9173 84.6037 23.4213 85.3237 23.4213H86.0917V24.3333H80.1157V23.4213H80.8357C81.5557 23.4213 81.9637 22.9173 81.9637 22.0293V15.7653C81.9637 14.3253 81.2677 13.5573 79.9957 13.5573C78.9877 13.5573 77.6917 14.1813 76.4917 15.4533V22.0293Z" fill="#F6F3EC" fill-opacity="0.64"/>
<path d="M90.5083 22.0293C90.5083 22.9173 90.9163 23.4213 91.6363 23.4213H92.4043V24.3333H86.3803V23.4213H87.1483C87.8683 23.4213 88.2763 22.9173 88.2763 22.0293V15.6213C88.2763 14.0133 88.0363 13.8933 86.2123 14.0373V13.1253C88.1083 12.9333 88.7563 12.7173 89.5003 12.1893H90.5083V22.0293ZM87.8683 8.54133V8.37333C87.8683 7.53333 88.3483 7.05333 89.1883 7.05333H89.3563C90.2203 7.05333 90.7003 7.53333 90.7003 8.37333V8.54133C90.7003 9.38133 90.2203 9.86133 89.3563 9.86133H89.1883C88.3483 9.86133 87.8683 9.38133 87.8683 8.54133Z" fill="#F6F3EC" fill-opacity="0.64"/>
<path d="M98.4609 11.9493C101.101 11.9493 102.877 13.2213 102.877 15.6693V22.2933C102.877 23.0373 103.165 23.4453 103.669 23.4453C103.981 23.4453 104.269 23.3973 104.773 23.1813L104.989 24.0693C103.621 24.5973 103.117 24.6693 102.493 24.6693C101.221 24.6693 100.645 23.8773 100.645 22.6773V22.6533C99.6609 23.9253 98.3169 24.6933 96.7089 24.6933C94.5729 24.6933 93.2049 23.4453 93.2049 21.2133C93.2049 18.2613 96.7089 16.7973 100.645 16.7733V15.7653C100.645 13.9653 99.7329 13.0293 98.2449 13.0293C96.4209 13.0293 95.4609 14.0613 94.6929 15.6933H93.8529L94.0929 12.9333C95.4849 12.2853 97.0689 11.9493 98.4609 11.9493ZM95.6769 20.9973C95.6769 22.3413 96.4449 23.1573 97.5729 23.1573C98.8209 23.1573 99.9009 22.3653 100.645 21.0213V17.8293C97.6209 17.8533 95.6769 18.7413 95.6769 20.9973Z" fill="#F6F3EC" fill-opacity="0.64"/>
<path d="M13.1995 28.0176H11.6995L12.4495 28L13.1995 28.0176ZM13.1995 3.98242V4.00651C13.1998 4.02105 13.2006 4.04219 13.2008 4.06901C13.2014 4.1226 13.2013 4.20009 13.2008 4.29883C13.2007 4.32832 13.1999 4.36 13.1995 4.39323C13.2014 4.56707 13.2055 4.79541 13.2165 5.06641C13.2431 5.72293 13.3058 6.62422 13.4502 7.60417C13.7468 9.61729 14.3607 11.7588 15.5257 12.9238C16.6908 14.0889 18.8323 14.7028 20.8454 14.9993C21.8253 15.1437 22.7266 15.2064 23.3831 15.2331C23.6538 15.2441 23.8819 15.2475 24.0557 15.2493C24.0891 15.249 24.121 15.2488 24.1507 15.2487C24.2495 15.2482 24.3269 15.2482 24.3805 15.2487C24.4074 15.249 24.4285 15.2498 24.443 15.25H24.4665L24.4495 16L24.4665 16.75H24.443C24.4285 16.7502 24.4074 16.751 24.3805 16.7513C24.3269 16.7518 24.2495 16.7518 24.1507 16.7513C24.121 16.7512 24.0891 16.7503 24.0557 16.75C23.8819 16.7518 23.6538 16.7559 23.3831 16.7669C22.7266 16.7936 21.8253 16.8563 20.8454 17.0007C18.8323 17.2972 16.6908 17.9111 15.5257 19.0762C14.3607 20.2412 13.7468 22.3827 13.4502 24.3958C13.3058 25.3758 13.2431 26.2771 13.2165 26.9336C13.2055 27.2043 13.2014 27.4324 13.1995 27.6061C13.1999 27.6396 13.2007 27.6715 13.2008 27.7012C13.2013 27.7999 13.2014 27.8774 13.2008 27.931C13.2006 27.9578 13.1998 27.979 13.1995 27.9935V28.0176L12.4495 28L11.6995 28.0176V27.9935C11.6993 27.979 11.6985 27.9578 11.6982 27.931C11.6977 27.8774 11.6977 27.7999 11.6982 27.7012C11.6984 27.6715 11.6986 27.6396 11.6989 27.6061C11.697 27.4324 11.6936 27.2042 11.6826 26.9336C11.656 26.2771 11.5933 25.3758 11.4489 24.3958C11.1523 22.3827 10.5384 20.2412 9.37337 19.0762C8.20831 17.9111 6.06683 17.2972 4.05371 17.0007C3.07377 16.8563 2.17247 16.7936 1.51595 16.7669C1.24496 16.7559 1.01662 16.7518 0.842773 16.75C0.809547 16.7503 0.777863 16.7512 0.748372 16.7513C0.649634 16.7518 0.572144 16.7518 0.518555 16.7513C0.491731 16.751 0.470592 16.7502 0.456055 16.75H0.432617L0.449544 16L0.432617 15.25H0.456055C0.470592 15.2498 0.491731 15.249 0.518555 15.2487C0.572144 15.2482 0.649634 15.2482 0.748372 15.2487C0.777861 15.2488 0.809549 15.249 0.842773 15.2493C1.01662 15.2475 1.24496 15.2441 1.51595 15.2331C2.17247 15.2064 3.07377 15.1437 4.05371 14.9993C6.06683 14.7028 8.20831 14.0889 9.37337 12.9238C10.5384 11.7588 11.1523 9.61729 11.4489 7.60417C11.5933 6.62422 11.656 5.72293 11.6826 5.06641C11.6936 4.79541 11.6971 4.56707 11.6989 4.39323C11.6986 4.36 11.6984 4.32832 11.6982 4.29883C11.6977 4.20009 11.6977 4.1226 11.6982 4.06901C11.6985 4.04219 11.6993 4.02105 11.6995 4.00651V3.98307L13.1995 3.98242ZM12.4495 10.1387C12.049 11.5708 11.4246 12.995 10.4346 13.985C9.4445 14.9751 8.02038 15.5995 6.58822 16C8.02038 16.4005 9.4445 17.0249 10.4346 18.015C11.4245 19.0049 12.049 20.4287 12.4495 21.8607C12.8501 20.4287 13.4746 19.0049 14.4645 18.015C15.4544 17.025 16.8783 16.4006 18.3102 16C16.8783 15.5994 15.4544 14.975 14.4645 13.985C13.4745 12.995 12.8501 11.5708 12.4495 10.1387ZM0.449544 16L0.432617 16.75V15.25L0.449544 16ZM24.4665 16.75L24.4495 16L24.4665 15.25V16.75Z" fill="#F6F3EC" fill-opacity="0.64"/>
</svg>
