<svg width="129" height="32" viewBox="0 0 129 32" fill="none" xmlns="http://www.w3.org/2000/svg">
<path fill-rule="evenodd" clip-rule="evenodd" d="M10.9976 5.1872C10.1609 5.859 9.59504 6.86726 9.59504 8.25132C9.59504 9.64784 10.1728 10.9579 11.0973 12.2609C11.937 13.4445 13.0345 14.5847 14.1841 15.7509C14.252 15.685 14.32 15.6192 14.3882 15.5534C15.4546 14.4555 16.4647 13.3725 17.2499 12.2535C18.1667 10.9469 18.7443 9.63533 18.7576 8.24914C18.757 6.87557 18.192 5.8697 17.3548 5.19658C16.505 4.51328 15.351 4.15614 14.1755 4.15417C12.9999 4.15219 11.8466 4.50545 10.9976 5.1872ZM18.4831 12.1879C19.2354 10.973 19.7399 9.67121 19.7528 8.25579L19.7528 8.25132C19.7528 6.57387 19.0483 5.2871 17.9813 4.42918C16.9265 3.58109 15.5411 3.1688 14.1772 3.16651C12.8133 3.16422 11.4271 3.57187 10.3716 4.41938C9.30371 5.27684 8.59984 6.5662 8.59984 8.25132C8.59984 9.70915 9.12544 11.0386 9.90977 12.2738C8.66328 11.5006 7.326 10.9787 5.86933 10.9656L5.86483 10.9656C4.17458 10.9656 2.87798 11.6648 2.01352 12.7237C1.15896 13.7704 0.743528 15.1454 0.741221 16.499C0.738914 17.8525 1.14967 19.2282 2.00365 20.2757C2.86765 21.3355 4.16685 22.0341 5.86483 22.0341C7.31 22.0341 8.62993 21.5292 9.85751 20.7716C9.09776 21.9935 8.59329 23.3022 8.59985 24.7248C8.60754 26.3937 9.31603 27.6807 10.3818 28.5436C11.4362 29.3973 12.8195 29.8215 14.1826 29.8329C15.5456 29.8444 16.9311 29.4434 17.9859 28.5921C19.0533 27.7307 19.7528 26.43 19.7528 24.7226C19.7528 23.3157 19.278 22.0287 18.5561 20.8317C19.7657 21.5601 21.0598 22.0404 22.464 22.034C24.1457 22.0264 25.4425 21.3233 26.312 20.2656C27.1722 19.2192 27.5996 17.8463 27.6111 16.4936C27.6227 15.1409 27.2186 13.7659 26.3608 12.7191C25.4929 11.6598 24.1822 10.9656 22.4618 10.9656C21.0214 10.9656 19.7057 11.4521 18.4831 12.1879ZM14.8868 16.4627C14.9556 16.3922 15.0245 16.3215 15.0933 16.2507C16.1831 15.1994 17.2596 14.2058 18.3779 13.4342C19.6975 12.5236 21.0326 11.9532 22.4618 11.9532C23.8854 11.9532 24.9114 12.5156 25.5887 13.3422C26.2761 14.1811 26.6259 15.3211 26.616 16.4852C26.606 17.6492 26.2367 18.7948 25.5409 19.6412C24.8544 20.4762 23.8361 21.0402 22.4595 21.0464C21.0646 21.0527 19.742 20.4818 18.4179 19.5625C17.4694 18.904 16.5448 18.0848 15.6123 17.2064C15.372 16.9567 15.1293 16.7089 14.8868 16.4627ZM13.4277 16.4861C12.2505 17.6292 11.0997 18.7207 9.90505 19.5555C8.59204 20.473 7.272 21.0464 5.86483 21.0464C4.47021 21.0464 3.45425 20.4848 2.77733 19.6545C2.09037 18.8118 1.73442 17.6673 1.73641 16.5006C1.7384 15.334 2.09826 14.1888 2.78678 13.3454C3.46502 12.5146 4.47853 11.9538 5.86253 11.9532C7.25934 11.9664 8.58097 12.5396 9.89757 13.4495C11.0947 14.2768 12.251 15.3559 13.4277 16.4861ZM14.1675 17.1985C14.4135 17.435 14.6607 17.6717 14.9094 17.9062C15.7881 18.8197 16.6069 19.7298 17.2653 20.6696C18.1828 21.9792 18.7576 23.3042 18.7576 24.7226C18.7576 26.1355 18.1909 27.1537 17.358 27.8258C16.5127 28.508 15.364 28.8552 14.191 28.8453C13.0182 28.8355 11.8638 28.4689 11.0109 27.7784C10.1696 27.0971 9.60133 26.0865 9.59503 24.7203C9.58865 23.336 10.164 22.0234 11.0903 20.7093C11.9269 19.5224 13.0211 18.3731 14.1675 17.1985Z" fill="#F6F3EC" fill-opacity="0.64"/>
<path d="M104.295 25.3887V24.4554L107.089 23.9754H108.218L111.039 24.4554V25.3887H104.295ZM106.095 25.3887C106.113 24.9798 106.122 24.4465 106.122 23.7887C106.14 23.1132 106.149 22.4198 106.149 21.7087C106.167 20.9798 106.176 20.3398 106.176 19.7887V18.482C106.176 17.9843 106.167 17.5576 106.149 17.202C106.149 16.8287 106.14 16.482 106.122 16.162C106.122 15.842 106.113 15.5043 106.095 15.1487L104.107 14.882V14.002L108.191 12.4287L108.594 12.6954L108.836 16.1087V19.7887C108.836 20.3398 108.836 20.9798 108.836 21.7087C108.854 22.4198 108.863 23.1132 108.863 23.7887C108.881 24.4465 108.898 24.9798 108.916 25.3887H106.095ZM108.782 18.082L108.272 16.322H108.675C108.943 15.4865 109.284 14.7843 109.696 14.2154C110.126 13.6287 110.591 13.1843 111.093 12.882C111.612 12.5798 112.123 12.4287 112.624 12.4287C113.072 12.4287 113.475 12.5354 113.834 12.7487C114.21 12.9443 114.47 13.2465 114.613 13.6554C114.595 14.2598 114.443 14.7309 114.156 15.0687C113.887 15.3887 113.493 15.5487 112.974 15.5487C112.651 15.5487 112.347 15.4776 112.06 15.3354C111.791 15.1932 111.523 14.9887 111.254 14.722L110.529 14.002L111.765 13.922C111.048 14.2954 110.439 14.8376 109.937 15.5487C109.436 16.242 109.051 17.0865 108.782 18.082Z" fill="#F6F3EC" fill-opacity="0.64"/>
<path d="M97.3105 25.7354C96.1999 25.7354 95.1699 25.4865 94.2205 24.9887C93.289 24.4732 92.5366 23.7265 91.9634 22.7487C91.3902 21.7532 91.1035 20.5443 91.1035 19.122C91.1035 17.682 91.3902 16.4643 91.9634 15.4687C92.5545 14.4732 93.3248 13.7176 94.2742 13.202C95.2236 12.6865 96.2357 12.4287 97.3105 12.4287C98.4033 12.4287 99.4154 12.6865 100.347 13.202C101.296 13.7176 102.067 14.4732 102.658 15.4687C103.249 16.4465 103.544 17.6643 103.544 19.122C103.544 20.5443 103.249 21.7532 102.658 22.7487C102.084 23.7265 101.323 24.4732 100.374 24.9887C99.4423 25.4865 98.4212 25.7354 97.3105 25.7354ZM97.3105 24.6154C98.0092 24.6154 98.6003 24.4109 99.084 24.002C99.5856 23.5932 99.9617 22.9887 100.213 22.1887C100.481 21.3709 100.616 20.3487 100.616 19.122C100.616 17.8776 100.481 16.8465 100.213 16.0287C99.9617 15.2109 99.5856 14.5976 99.084 14.1887C98.6003 13.7798 98.0092 13.5754 97.3105 13.5754C96.6119 13.5754 96.0118 13.7798 95.5102 14.1887C95.0266 14.5976 94.6594 15.2198 94.4086 16.0554C94.1578 16.8732 94.0324 17.9043 94.0324 19.1487C94.0324 20.3576 94.1578 21.3709 94.4086 22.1887C94.6594 22.9887 95.0266 23.5932 95.5102 24.002C96.0118 24.4109 96.6119 24.6154 97.3105 24.6154Z" fill="#F6F3EC" fill-opacity="0.64"/>
<path d="M76.5384 25.3887V24.4554L78.4193 24.1354C78.4372 23.6909 78.4462 23.2109 78.4462 22.6954C78.4462 22.1621 78.4462 21.6465 78.4462 21.1487C78.4641 20.6332 78.4731 20.1798 78.4731 19.7887V8.08206L76.4041 7.78872V6.88206L80.7839 5.70872L81.1332 5.94872L81.0257 10.0021V14.7487L81.1063 15.0421V23.3354L80.7839 25.6821L76.5384 25.3887ZM84.6532 25.7354C84.1158 25.7354 83.5963 25.6554 83.0947 25.4954C82.6111 25.3354 82.1364 25.0509 81.6706 24.6421C81.2228 24.2332 80.7929 23.6821 80.3809 22.9887H79.9509L80.1928 21.8154C80.8376 22.6332 81.4736 23.2287 82.1005 23.6021C82.7275 23.9576 83.3545 24.1354 83.9815 24.1354C84.6084 24.1354 85.1727 23.9576 85.6743 23.6021C86.1758 23.2287 86.5789 22.6687 86.8834 21.9221C87.188 21.1754 87.3402 20.2332 87.3402 19.0954C87.3402 17.4065 87.0357 16.1443 86.4266 15.3087C85.8176 14.4554 85.0294 14.0287 84.0621 14.0287C83.7038 14.0287 83.3187 14.1176 82.9066 14.2954C82.4946 14.4554 82.0647 14.7132 81.6169 15.0687C81.169 15.4065 80.6854 15.8509 80.1659 16.4021L79.9241 15.1487H80.4883C80.9362 14.5265 81.4019 14.0198 81.8856 13.6287C82.3692 13.2198 82.8708 12.9176 83.3903 12.7221C83.9277 12.5265 84.483 12.4287 85.0563 12.4287C86.0057 12.4287 86.8566 12.6865 87.6089 13.2021C88.3792 13.6998 88.9883 14.4287 89.4361 15.3887C89.9018 16.3487 90.1347 17.5309 90.1347 18.9354C90.1347 20.3221 89.8929 21.5309 89.4092 22.5621C88.9256 23.5754 88.2628 24.3576 87.4208 24.9087C86.5968 25.4598 85.6743 25.7354 84.6532 25.7354Z" fill="#F6F3EC" fill-opacity="0.64"/>
<path d="M66.9964 25.3887V24.4554L69.7909 23.9754H70.9195L73.7409 24.4554V25.3887H66.9964ZM68.7967 25.3887C68.8147 24.9798 68.8236 24.4465 68.8236 23.7887C68.8415 23.1132 68.8505 22.4198 68.8505 21.7087C68.8684 20.9798 68.8773 20.3398 68.8773 19.7887V18.482C68.8773 17.9843 68.8684 17.5576 68.8505 17.202C68.8505 16.8287 68.8415 16.482 68.8236 16.162C68.8236 15.842 68.8147 15.5043 68.7967 15.1487L66.8083 14.882V14.002L70.8926 12.4287L71.2957 12.6954L71.5375 16.1087V19.7887C71.5375 20.3398 71.5375 20.9798 71.5375 21.7087C71.5554 22.4198 71.5644 23.1132 71.5644 23.7887C71.5823 24.4465 71.6002 24.9798 71.6181 25.3887H68.7967ZM71.4837 18.082L70.9732 16.322H71.3763C71.645 15.4865 71.9853 14.7843 72.3973 14.2154C72.8273 13.6287 73.293 13.1843 73.7946 12.882C74.3141 12.5798 74.8246 12.4287 75.3262 12.4287C75.774 12.4287 76.1771 12.5354 76.5353 12.7487C76.9115 12.9443 77.1713 13.2465 77.3146 13.6554C77.2967 14.2598 77.1444 14.7309 76.8578 15.0687C76.5891 15.3887 76.195 15.5487 75.6755 15.5487C75.3531 15.5487 75.0485 15.4776 74.7619 15.3354C74.4932 15.1932 74.2245 14.9887 73.9558 14.722L73.2303 14.002L74.4663 13.922C73.7498 14.2954 73.1407 14.8376 72.6392 15.5487C72.1376 16.242 71.7525 17.0865 71.4837 18.082Z" fill="#F6F3EC" fill-opacity="0.64"/>
<path d="M58.4792 25.7354C57.5119 25.7354 56.6879 25.4598 56.0071 24.9087C55.3264 24.3576 54.9861 23.5398 54.9861 22.4554C54.9861 21.922 55.1025 21.4154 55.3354 20.9354C55.5683 20.4554 56.0071 20.0109 56.652 19.602C57.3148 19.1754 58.2732 18.7843 59.5271 18.4287C59.9571 18.2865 60.3959 18.1532 60.8438 18.0287C61.3095 17.9043 61.7753 17.7798 62.241 17.6554C62.7068 17.5132 63.1815 17.3798 63.6651 17.2554V18.162C63.0203 18.3398 62.4022 18.5265 61.8111 18.722C61.2379 18.9176 60.7005 19.0954 60.1989 19.2554C59.4644 19.5043 58.9091 19.7798 58.5329 20.082C58.1747 20.3843 57.9328 20.7043 57.8074 21.042C57.7 21.362 57.6462 21.6909 57.6462 22.0287C57.6462 22.7043 57.8343 23.202 58.2105 23.522C58.6046 23.8243 59.0883 23.9754 59.6615 23.9754C59.966 23.9754 60.2616 23.9309 60.5482 23.842C60.8348 23.7354 61.1752 23.5576 61.5693 23.3087C61.9634 23.042 62.4739 22.6687 63.1009 22.1887L63.4502 23.4687H62.5635C62.0798 23.9843 61.632 24.4109 61.22 24.7487C60.8079 25.0865 60.387 25.3354 59.9571 25.4954C59.5451 25.6554 59.0524 25.7354 58.4792 25.7354ZM64.8474 25.682C64.0592 25.682 63.4412 25.4509 62.9934 24.9887C62.5635 24.5265 62.3306 23.8954 62.2948 23.0954V16.8287C62.2948 15.9754 62.2141 15.3176 62.0529 14.8554C61.8917 14.3754 61.632 14.0465 61.2737 13.8687C60.9154 13.6909 60.4497 13.602 59.8764 13.602C59.554 13.602 59.2047 13.6376 58.8285 13.7087C58.4523 13.762 58.0224 13.8687 57.5387 14.0287L58.721 13.202L58.1836 15.362C58.0941 15.8776 57.9149 16.2598 57.6462 16.5087C57.3954 16.7576 57.082 16.882 56.7058 16.882C56.3117 16.882 55.9982 16.7843 55.7653 16.5887C55.5504 16.3932 55.416 16.1176 55.3623 15.762C55.5593 14.7487 56.1325 13.9398 57.082 13.3354C58.0314 12.7309 59.2316 12.4287 60.6826 12.4287C61.6678 12.4287 62.4649 12.5887 63.074 12.9087C63.701 13.2109 64.1667 13.7087 64.4712 14.402C64.7758 15.0776 64.928 15.9665 64.928 17.0687V22.8554C64.928 23.3532 64.9997 23.7087 65.143 23.922C65.3042 24.1354 65.5192 24.242 65.7879 24.242C66.0028 24.242 66.182 24.1887 66.3253 24.082C66.4865 23.9754 66.6477 23.8243 66.809 23.6287L67.3195 24.1354C67.0329 24.6865 66.6836 25.0865 66.2715 25.3354C65.8774 25.5665 65.4027 25.682 64.8474 25.682Z" fill="#F6F3EC" fill-opacity="0.64"/>
<path d="M36.1771 25.3887V24.3487L39.6165 23.9487H40.2882L43.7545 24.3487V25.3887H36.1771ZM38.4342 25.3887C38.47 24.5176 38.4969 23.6287 38.5148 22.722C38.5327 21.7976 38.5416 20.8643 38.5416 19.9221C38.5416 18.9621 38.5416 18.0198 38.5416 17.0954V15.8687C38.5416 14.9443 38.5416 14.0198 38.5416 13.0954C38.5416 12.1532 38.5327 11.2198 38.5148 10.2954C38.4969 9.37094 38.47 8.47316 38.4342 7.60205H41.4974C41.4794 8.45538 41.4615 9.34427 41.4436 10.2687C41.4257 11.1932 41.4167 12.1265 41.4167 13.0687C41.4167 14.0109 41.4167 14.9443 41.4167 15.8687V16.7487C41.4167 17.7798 41.4167 18.7932 41.4167 19.7887C41.4167 20.7665 41.4257 21.7265 41.4436 22.6687C41.4615 23.5932 41.4794 24.4998 41.4974 25.3887H38.4342ZM39.9658 16.8821V15.682H50.8213V16.8821H39.9658ZM47.0326 25.3887V24.3487L50.4989 23.9487H51.1706L54.61 24.3487V25.3887H47.0326ZM49.2897 25.3887C49.3255 24.5176 49.3434 23.6198 49.3434 22.6954C49.3614 21.7709 49.3703 20.8109 49.3703 19.8154C49.3703 18.8198 49.3703 17.7976 49.3703 16.7487V15.8687C49.3703 14.9443 49.3703 14.0198 49.3703 13.0954C49.3703 12.1532 49.3614 11.2198 49.3434 10.2954C49.3434 9.37094 49.3255 8.47316 49.2897 7.60205H52.326C52.3081 8.45538 52.2902 9.34427 52.2723 10.2687C52.2544 11.1932 52.2454 12.1265 52.2454 13.0687C52.2454 14.0109 52.2454 14.9443 52.2454 15.8687V17.0954C52.2454 18.0021 52.2454 18.9265 52.2454 19.8687C52.2454 20.8109 52.2544 21.7443 52.2723 22.6687C52.2902 23.5932 52.3081 24.4998 52.326 25.3887H49.2897ZM36.1771 8.64205V7.60205H43.7545V8.64205L40.2882 9.04205H39.6165L36.1771 8.64205ZM47.0326 8.64205V7.60205H54.61V8.64205L51.1706 9.04205H50.4989L47.0326 8.64205Z" fill="#F6F3EC" fill-opacity="0.64"/>
<path d="M119.635 9.99031L118.253 6.89266H118.812L119.779 9.16539L120.746 6.89266H121.306L119.924 9.99031H119.635ZM118.151 9.99031V6.89266H118.694V9.99031H118.151ZM120.865 9.99031V6.89266H121.408V9.99031H120.865ZM116.115 9.99031V7.16202H116.658V9.99031H116.115ZM115.165 7.36404V6.89266H117.608V7.36404H115.165Z" fill="#F6F3EC" fill-opacity="0.64"/>
</svg>
