<svg width="93" height="32" viewBox="0 0 93 32" fill="none" xmlns="http://www.w3.org/2000/svg">
<path fill-rule="evenodd" clip-rule="evenodd" d="M25.179 10.9427C26.4553 10.9427 27.5615 11.2257 28.4975 11.7915C29.4336 12.3574 30.1572 13.1521 30.6678 14.1753C31.184 15.1985 31.442 16.3904 31.442 17.7508C31.442 19.1113 31.1841 20.3005 30.6678 21.318C30.1572 22.3354 29.4335 23.127 28.4975 23.6929C27.5615 24.2587 26.4553 24.5417 25.179 24.5417C23.9026 24.5417 22.7965 24.2587 21.8605 23.6929C20.9245 23.127 20.1982 22.3354 19.6819 21.318C19.1713 20.3005 18.916 19.1113 18.916 17.7508C18.916 16.3904 19.1713 15.1986 19.6819 14.1753C20.1982 13.1521 20.9244 12.3574 21.8605 11.7915C22.7965 11.2257 23.9027 10.9427 25.179 10.9427ZM25.1962 13.4033C24.4871 13.4033 23.8969 13.598 23.4261 13.9867C22.9609 14.3754 22.6118 14.8983 22.3792 15.5556C22.1522 16.2073 22.0389 16.9365 22.0389 17.7425C22.0389 18.5427 22.1523 19.2688 22.3792 19.9204C22.6117 20.5719 22.961 21.0918 23.4261 21.4804C23.8969 21.8634 24.4871 22.0555 25.1962 22.0555C25.8883 22.0554 26.4668 21.8634 26.9319 21.4804C27.397 21.0918 27.743 20.5719 27.9699 19.9204C28.2025 19.2688 28.3191 18.5427 28.3191 17.7425C28.3191 16.9365 28.2025 16.2073 27.9699 15.5556C27.743 14.8984 27.3971 14.3753 26.9319 13.9867C26.4668 13.598 25.8882 13.4033 25.1962 13.4033Z" fill="#F6F3EC" fill-opacity="0.64"/>
<path fill-rule="evenodd" clip-rule="evenodd" d="M50.0469 10.9427C51.3233 10.9427 52.43 11.2256 53.366 11.7915C54.302 12.3574 55.0251 13.1522 55.5357 14.1753C56.0519 15.1985 56.3099 16.3904 56.3099 17.7508C56.3099 19.1113 56.0519 20.3005 55.5357 21.318C55.0251 22.3353 54.3019 23.127 53.366 23.6929C52.43 24.2588 51.3233 24.5417 50.0469 24.5417C48.7705 24.5416 47.6643 24.2587 46.7283 23.6929C45.7924 23.127 45.066 22.3354 44.5498 21.318C44.0392 20.3005 43.7839 19.1113 43.7839 17.7508C43.7839 16.3904 44.0392 15.1985 44.5498 14.1753C45.066 13.1521 45.7923 12.3574 46.7283 11.7915C47.6643 11.2256 48.7705 10.9427 50.0469 10.9427ZM50.0641 13.4033C49.3549 13.4033 48.7648 13.598 48.2939 13.9867C47.8288 14.3753 47.4802 14.8984 47.2477 15.5556C47.0208 16.2072 46.9068 16.936 46.9068 17.7419C46.9068 18.5421 47.0208 19.2682 47.2477 19.9198C47.4802 20.5714 47.8288 21.0918 48.2939 21.4804C48.7648 21.8634 49.3549 22.0548 50.0641 22.0548C50.7561 22.0548 51.3346 21.8634 51.7998 21.4804C52.265 21.0917 52.6115 20.5714 52.8384 19.9198C53.0709 19.2682 53.187 18.542 53.187 17.7419C53.1869 16.936 53.071 16.2072 52.8384 15.5556C52.6115 14.8983 52.265 14.3754 51.7998 13.9867C51.3346 13.598 50.7561 13.4033 50.0641 13.4033Z" fill="#F6F3EC" fill-opacity="0.64"/>
<path d="M68.8996 11.1141H71.4783V13.5153H68.8996V20.3234C68.8996 20.7405 68.9622 21.0606 69.0869 21.2834C69.2174 21.5007 69.3881 21.6492 69.598 21.7293C69.8078 21.8092 70.0405 21.8495 70.2957 21.8495C70.4885 21.8495 70.6645 21.8352 70.8233 21.8067C70.9876 21.7781 71.1123 21.7521 71.1973 21.7293L71.7166 24.156C71.5521 24.2131 71.3163 24.2761 71.01 24.3447C70.7094 24.4132 70.3405 24.4528 69.9038 24.4643C69.1324 24.4871 68.4372 24.3703 67.8189 24.1131C67.2006 23.8502 66.71 23.444 66.347 22.8953C65.9896 22.3466 65.8137 21.6607 65.8194 20.8376V13.5153H63.9397V24.2845H60.8588V11.1141H65.8194V7.95888H68.8996V11.1141Z" fill="#F6F3EC" fill-opacity="0.64"/>
<path d="M38.8953 10.9427C39.7972 10.9427 40.5829 11.1368 41.2523 11.5254C41.9273 11.9141 42.4498 12.4773 42.8185 13.2146C43.1929 13.952 43.3772 14.8468 43.3716 15.8985V24.2845H40.2907V16.3788C40.2907 15.4985 40.0641 14.8095 39.6102 14.3122C39.1621 13.815 38.5406 13.5664 37.7464 13.5664C37.2075 13.5665 36.728 13.6865 36.3083 13.9265C35.8942 14.1609 35.5678 14.5009 35.3295 14.9467C35.0969 15.3926 34.981 15.933 34.981 16.5675V24.2845H31.9008V11.1141H34.8446V13.3522H34.9982C35.2989 12.6148 35.7783 12.0289 36.4363 11.5945C37.1001 11.1601 37.9196 10.9427 38.8953 10.9427Z" fill="#F6F3EC" fill-opacity="0.64"/>
<path d="M9.09107 19.4484H9.29497L14.469 6.72378H18.3323V24.2839H15.3031V12.22H15.1412L10.3247 24.2327H8.06136L3.24479 12.1944H3.08294V24.2839H0.0537109V6.72378H3.91703L9.09107 19.4484Z" fill="#F6F3EC" fill-opacity="0.64"/>
<path d="M59.8489 24.2839H56.7686V6.72378H59.8489V24.2839Z" fill="#F6F3EC" fill-opacity="0.64"/>
<path d="M75.1906 13.3515H75.3436C75.6499 12.6085 76.1235 12.0225 76.7645 11.5938C77.4112 11.1594 78.234 10.9427 79.2324 10.9427C80.1401 10.9427 80.9315 11.1341 81.6066 11.5171C82.2817 11.9001 82.804 12.46 83.1728 13.1974C83.5472 13.9348 83.7342 14.8353 83.7342 15.8985V24.2839H80.6533V16.3788C80.6533 15.4928 80.4266 14.8038 79.9728 14.3122C79.5246 13.8149 78.8948 13.5664 78.0835 13.5664C77.539 13.5665 77.051 13.6865 76.6199 13.9265C76.1945 14.1609 75.8595 14.5009 75.6156 14.9467C75.3774 15.3926 75.2588 15.9331 75.2588 16.5675V24.2839H72.178V6.72378H75.1906V13.3515Z" fill="#F6F3EC" fill-opacity="0.64"/>
<path d="M87.969 7.7977H86.7666V10.7969H85.7375V7.7977H84.5721V6.91438H87.969V7.7977Z" fill="#F6F3EC" fill-opacity="0.64"/>
<path d="M90.9447 9.54002H90.9816L91.9986 6.91438H93.387V10.7969H92.4077V9.34046L92.4319 8.1335H92.3949L91.341 10.7969H90.5725L89.5186 8.1335H89.4938L89.5065 9.34046V10.7969H88.552L88.5393 6.91438H89.9156L90.9447 9.54002Z" fill="#F6F3EC" fill-opacity="0.64"/>
<path d="M62.4078 5.875C62.9013 5.87504 63.3209 6.04112 63.6669 6.37262C64.0186 6.69844 64.1945 7.09553 64.1945 7.56424C64.1945 8.02722 64.0186 8.42432 63.6669 8.75585C63.3209 9.08163 62.9013 9.24448 62.4078 9.24452C61.9199 9.24452 61.4998 9.08168 61.1481 8.75585C60.7965 8.42435 60.6205 8.02715 60.6205 7.56424C60.6205 7.09561 60.7965 6.69841 61.1481 6.37262C61.4998 6.04108 61.9199 5.875 62.4078 5.875Z" fill="#F6F3EC" fill-opacity="0.64"/>
</svg>
