<svg width="32" height="32" viewBox="0 0 32 32" fill="none" xmlns="http://www.w3.org/2000/svg">
<rect width="32" height="32" fill="#E45A47"/>
<rect width="32" height="32" fill="#121212"/>
<g clip-path="url(#clip0_100_48203)">
<path d="M18.1732 11.1701C18.1732 11.6094 18.7346 11.8352 19.0747 11.5327L22.3294 8.63746C22.4286 8.54921 22.5602 8.5 22.6971 8.5H27.2786C27.5735 8.5 27.8125 8.72386 27.8125 9V13.3681C27.8125 13.5007 27.7563 13.6279 27.6561 13.7216L24.509 16.669L20.5548 20.3723L17.3716 23.3536C17.2715 23.4473 17.1357 23.5 16.9941 23.5H12.4205C12.1257 23.5 11.8867 23.2761 11.8867 23V20.5444C11.8867 20.0899 11.2916 19.8712 10.9615 20.2043L7.8541 23.3401C7.75308 23.4421 7.61129 23.5 7.4628 23.5H2.72135C2.42652 23.5 2.1875 23.2761 2.1875 23V19.4158C2.1875 18.8893 2.4092 18.384 2.8045 18.0096L12.061 9.24218C12.5625 8.76726 13.2459 8.5 13.9591 8.5H17.6393C17.9342 8.5 18.1732 8.72386 18.1732 9V11.1701Z" fill="#F6F3EC"/>
<path d="M21.5 17.875C21.5 17.5298 21.7798 17.25 22.125 17.25H27.125C27.4702 17.25 27.75 17.5298 27.75 17.875V22.875C27.75 23.2202 27.4702 23.5 27.125 23.5H22.125C21.7798 23.5 21.5 23.2202 21.5 22.875V17.875Z" fill="#E45A47"/>
</g>
<defs>
<clipPath id="clip0_100_48203">
<rect x="2.1875" y="6" width="25.625" height="20" rx="0.625" fill="white"/>
</clipPath>
</defs>
</svg>
