<svg width="144" height="24" viewBox="0 0 144 24" fill="none" xmlns="http://www.w3.org/2000/svg">
<path d="M19.1828 6.20415C19.1828 6.73127 19.8565 7.00221 20.2646 6.6392L24.1703 3.16495C24.2893 3.05905 24.4473 3 24.6115 3H30.1094C30.4632 3 30.75 3.26863 30.75 3.6V8.84169C30.75 9.00082 30.6825 9.15344 30.5624 9.26596L26.7859 12.8028L22.0407 17.2468L18.2209 20.8243C18.1008 20.9368 17.9378 21 17.7679 21H12.2796C11.9258 21 11.639 20.7314 11.639 20.4V17.4533C11.639 16.9079 10.925 16.6454 10.5288 17.0451L6.79992 20.8082C6.6787 20.9305 6.50855 21 6.33036 21H0.640626C0.286818 21 0 20.7314 0 20.4V16.099C0 15.4672 0.266044 14.8608 0.740398 14.4115L11.8482 3.89062C12.4499 3.32071 13.2701 3 14.1259 3H18.5422C18.896 3 19.1828 3.26863 19.1828 3.6V6.20415Z" fill="#F6F3EC"/>
<path d="M139.041 20.4051C135.994 20.4051 134.208 18.8711 133.977 16.5175L136.351 16.2443C136.351 17.6523 137.402 18.5769 139.104 18.5769C140.512 18.5769 141.479 18.0936 141.479 16.9588C141.479 15.4878 139.987 15.4038 137.99 14.9625C135.658 14.4371 134.46 13.4495 134.46 11.5792C134.46 9.47779 136.288 8.04883 139.02 8.04883C141.899 8.04883 143.601 9.37272 143.811 11.7263L141.5 12.0415C141.5 10.6966 140.659 9.85605 138.999 9.85605C137.675 9.85605 136.919 10.4865 136.919 11.3691C136.919 12.5248 137.948 12.8401 139.945 13.2393C142.067 13.6806 143.937 14.3951 144 16.8117C144.042 19.2914 141.836 20.4051 139.041 20.4051Z" fill="#F6F3EC"/>
<path d="M121.742 20.1949V3.59375H124.18V10.1081C124.957 8.7212 126.323 8.04875 127.983 8.04875C131.115 8.04875 133.132 10.4864 133.132 14.29C133.132 18.0305 131.178 20.4051 128.025 20.4051C126.281 20.4051 124.81 19.5855 124.159 18.2406L123.991 20.1949H121.742ZM124.18 14.9624C124.18 17.0218 125.483 18.3667 127.458 18.3667C129.475 18.3667 130.631 16.8957 130.631 14.29C130.631 11.6001 129.496 10.1081 127.437 10.1081C125.441 10.1081 124.18 11.4951 124.18 13.7016V14.9624Z" fill="#F6F3EC"/>
<path d="M112.992 20.4051C110.491 20.4051 109.062 19.0602 109.062 17.0639C109.062 14.8364 110.66 13.7857 112.845 13.3864L115.325 12.9241C116.502 12.714 116.796 12.3147 116.796 11.5582C116.796 10.5915 116.207 9.91909 114.505 9.91909C112.866 9.91909 111.752 10.5915 111.773 12.0205L109.483 11.7683C109.546 9.41475 111.521 8.04883 114.526 8.04883C117.615 8.04883 119.254 9.30968 119.254 11.7053V17.5472C119.254 18.3247 119.57 18.4718 119.927 18.4718C120.137 18.4718 120.221 18.4508 120.263 18.4298H120.389V20.174C120.074 20.3001 119.486 20.3631 119.191 20.3631C117.972 20.3631 117.132 19.7747 117.111 18.4298C116.375 19.6276 114.778 20.4051 112.992 20.4051ZM113.644 18.5139C115.262 18.5139 116.459 17.7574 116.838 16.5175V14.248C116.607 14.4161 116.081 14.5422 115.241 14.7103L113.539 15.0465C111.962 15.3618 111.563 16.0972 111.563 16.8748C111.563 17.9885 112.446 18.5139 113.644 18.5139Z" fill="#F6F3EC"/>
<path d="M105.078 20.1949V3.59375H107.516V20.1949H105.078Z" fill="#F6F3EC"/>
<path d="M102.788 8.25977V20.1958H100.519L100.392 18.4516C99.6359 19.6915 98.312 20.4059 96.799 20.4059C94.1302 20.4059 92.6172 18.8089 92.6172 16.3082V8.25977H95.0758V16.014C95.0758 17.464 95.9584 18.2625 97.3874 18.2625C99.1106 18.2625 100.287 17.1277 100.329 15.4676V8.25977H102.788Z" fill="#F6F3EC"/>
<path d="M79 14.29C79 10.4864 81.0174 8.04875 84.1485 8.04875C85.8926 8.04875 87.1955 8.78424 87.931 10.1081V3.59375H90.3897V20.1949H88.1201L87.952 18.2406C87.3006 19.5855 85.8296 20.4051 84.0644 20.4051C80.9333 20.4051 79 18.0305 79 14.29ZM81.5007 14.29C81.5007 16.8957 82.6354 18.3667 84.6528 18.3667C86.6492 18.3667 87.931 17.0008 87.931 14.8573V13.7016C87.931 11.4951 86.6912 10.1081 84.6738 10.1081C82.6354 10.1081 81.5007 11.6001 81.5007 14.29Z" fill="#F6F3EC"/>
<path d="M66.4531 14.248C66.4531 10.5075 68.7227 8.04883 72.211 8.04883C75.6783 8.04883 77.9269 10.5075 77.9269 14.248C77.9269 17.9675 75.6783 20.4051 72.211 20.4051C68.7016 20.4051 66.4531 17.9465 66.4531 14.248ZM68.8908 14.248C68.8908 16.8538 70.1096 18.3668 72.19 18.3668C74.2704 18.3668 75.4892 16.8327 75.4892 14.227C75.4892 11.6002 74.2704 10.0872 72.211 10.0872C70.1096 10.0872 68.8908 11.6422 68.8908 14.248Z" fill="#F6F3EC"/>
<path d="M48.75 20.1963V4.87695H52.8688L55.0753 11.1602C55.6216 12.7783 56.168 14.4384 56.7564 16.2456C57.2817 14.5435 57.9122 12.7362 58.4585 11.1602L60.686 4.87695H64.7208V20.1963H62.2621V10.1305C62.2621 9.33195 62.2831 8.11313 62.2831 7.0204C62.073 7.73488 61.5266 9.45804 61.0853 10.6979L57.66 20.1963H55.7897L52.3644 10.6979C51.9442 9.50007 51.5449 8.26023 51.1456 7.0204V20.1963H48.75Z" fill="#F6F3EC"/>
<path d="M23.1719 14.25C23.1719 13.8358 23.5077 13.5 23.9219 13.5H29.9219C30.3361 13.5 30.6719 13.8358 30.6719 14.25V20.25C30.6719 20.6642 30.3361 21 29.9219 21H23.9219C23.5077 21 23.1719 20.6642 23.1719 20.25V14.25Z" fill="#E45A47"/>
</svg>
