<svg width="256" height="256" viewBox="0 0 256 256" fill="none" xmlns="http://www.w3.org/2000/svg">
<rect width="256" height="256" fill="#121212"/>
<g clip-path="url(#clip0_100_48206)">
<path d="M143.246 99.7282C143.246 102.254 146.474 103.552 148.429 101.813L167.144 85.1654C167.715 84.6579 168.471 84.375 169.258 84.375H195.602C197.298 84.375 198.672 85.6622 198.672 87.25V112.366C198.672 113.129 198.348 113.86 197.773 114.399L179.677 131.347L156.94 152.641L138.637 169.783C138.061 170.322 137.28 170.625 136.466 170.625H110.168C108.473 170.625 107.098 169.338 107.098 167.75V153.63C107.098 151.017 103.677 149.759 101.779 151.675L83.9111 169.706C83.3302 170.292 82.5149 170.625 81.6611 170.625H54.3978C52.7025 170.625 51.3281 169.338 51.3281 167.75V147.141C51.3281 144.113 52.6029 141.208 54.8759 139.055L108.101 88.6426C110.984 85.9117 114.914 84.375 119.015 84.375H140.176C141.872 84.375 143.246 85.6622 143.246 87.25V99.7282Z" fill="#F6F3EC"/>
<path d="M162.375 138.281C162.375 136.296 163.984 134.688 165.969 134.688H194.719C196.703 134.688 198.312 136.296 198.312 138.281V167.031C198.312 169.016 196.703 170.625 194.719 170.625H165.969C163.984 170.625 162.375 169.016 162.375 167.031V138.281Z" fill="#E45A47"/>
</g>
<defs>
<clipPath id="clip0_100_48206">
<rect x="51.3281" y="70" width="147.344" height="115" rx="3.59375" fill="white"/>
</clipPath>
</defs>
</svg>
